<svg id="Layer_1" data-name="Layer 1" xmlns="http://www.w3.org/2000/svg" viewBox="0 0 1022.58 689"><defs><style>.cls-1{fill:#14b8a6;}</style></defs><path class="cls-1" d="M107.63,457.77h15.69v5.63H84v-5.63h17.17V352H84v-5.6h23.69Zm52.19,0v-45q0-11-4.89-17.17t-15.69-6.22a29.78,29.78,0,0,0-27.36,16.8q-4.25,8.22-4.25,20.14L106,410.54h2a36.56,36.56,0,0,1,6-14.25,29.36,29.36,0,0,1,11.11-9.36,35.14,35.14,0,0,1,15.8-3.33q13.4,0,19.4,7.43t6,20.77v46h16.28v5.63H144.2V457.8Z" transform="translate(-83.99 -76.44)"/><path class="cls-1" d="M234.59,464.66a42.35,42.35,0,0,1-21.17-5.15,36.88,36.88,0,0,1-14.22-14.17,41.62,41.62,0,0,1-5.1-20.88,42.62,42.62,0,0,1,5.1-21.1A37.1,37.1,0,0,1,213.38,389a45.48,45.48,0,0,1,42.31,0,37,37,0,0,1,14.21,14.4,42.74,42.74,0,0,1,5.11,21.1,41.73,41.73,0,0,1-5.11,20.88,37,37,0,0,1-14.17,14.17A42.29,42.29,0,0,1,234.59,464.66Zm0-6a35.16,35.16,0,0,0,17.58-4.29,30.16,30.16,0,0,0,11.81-12,40.24,40.24,0,0,0,0-35.86,30.93,30.93,0,0,0-11.81-12.25,37.05,37.05,0,0,0-35.23,0,30.79,30.79,0,0,0-11.81,12.25,37,37,0,0,0-4.22,17.95,36.51,36.51,0,0,0,4.22,17.88,30.1,30.1,0,0,0,11.81,12A35.36,35.36,0,0,0,234.59,458.66Z" transform="translate(-83.99 -76.44)"/><path class="cls-1" d="M290.56,463.4v-5.63h17.1v-67h-17.1v-5.63h23.61v72.62h15.7v5.63Zm56.56,0v-5.63h15.62V413q0-11.19-4.78-17.39t-15.21-6.22A26,26,0,0,0,328,393.66,28.58,28.58,0,0,0,317.84,406q-3.69,8.07-3.67,19.39l-1.77-15.84h2.14q1.92-13.11,10.18-19.54a31,31,0,0,1,19.73-6.44q12.81,0,18.81,7.4t6,20.87v45.9h16.36v5.63Zm55.07,0v-5.63h15.63V413q0-11.19-4.82-17.39t-15.17-6.22A26,26,0,0,0,383,393.66,28.52,28.52,0,0,0,372.92,406q-3.69,8.07-3.67,19.39l-1.78-15.84h2.15q1.92-13.11,10.18-19.54a31,31,0,0,1,19.73-6.44q12.66,0,18.73,7.4t6.07,20.87v45.9h16.21v5.63Z" transform="translate(-83.99 -76.44)"/><path class="cls-1" d="M491.55,464.66a40.17,40.17,0,0,1-20.65-5.15,35.54,35.54,0,0,1-13.66-14.17,43.33,43.33,0,0,1-4.85-20.88,44.4,44.4,0,0,1,4.85-21.1A36,36,0,0,1,470.79,389a38.6,38.6,0,0,1,20.32-5.22q11.55,0,20,5.11A34.93,34.93,0,0,1,524.25,403,44.63,44.63,0,0,1,529,423.72v2.52h-6.51c0-.47.07-.94.07-1.41V423.2a38.2,38.2,0,0,0-3.81-17.4A28.76,28.76,0,0,0,507.89,394a34.22,34.22,0,0,0-33.46.15A30.44,30.44,0,0,0,463,406.4a38.43,38.43,0,0,0-4.08,18.06,37.46,37.46,0,0,0,4.08,17.8,29.94,29.94,0,0,0,11.36,12.07,35.92,35.92,0,0,0,35.31-.63,30.41,30.41,0,0,0,11.66-13.62l6.22,2.37a36.44,36.44,0,0,1-14,16.25A40.32,40.32,0,0,1,491.55,464.66Zm-35.09-38.42V421h70.33l1.85,5.26Z" transform="translate(-83.99 -76.44)"/><path class="cls-1" d="M584.38,464.66a40.68,40.68,0,0,1-20.73-5.15,36,36,0,0,1-13.8-14.17,43,43,0,0,1-4.92-20.88,47,47,0,0,1,2.73-16.4,37.66,37.66,0,0,1,7.81-12.88,34.82,34.82,0,0,1,12.15-8.44,39.23,39.23,0,0,1,15.58-3,34.63,34.63,0,0,1,15.14,3,26,26,0,0,1,10,8.14,28,28,0,0,1,4.89,11.4H615l-1.4,10a32.46,32.46,0,0,0-5-14A27.82,27.82,0,0,0,598.27,393a30.77,30.77,0,0,0-14.55-3.33,31.43,31.43,0,0,0-16.81,4.44,30.1,30.1,0,0,0-11.25,12.29,39.06,39.06,0,0,0-4,18.06,37.57,37.57,0,0,0,4.07,17.8,29.87,29.87,0,0,0,11.44,12.07,33.51,33.51,0,0,0,17.29,4.33,33.17,33.17,0,0,0,18.1-4.85,31,31,0,0,0,11.58-13.06l5.93,2.66A36.76,36.76,0,0,1,606.33,459Q597.27,464.67,584.38,464.66Zm29.25-48.34V385.15h6.51v31.17Z" transform="translate(-83.99 -76.44)"/><path class="cls-1" d="M658.93,457.77h16.51v5.63H635v-5.63h17.4v-67H635v-5.63H658.9Zm32.13-66a20,20,0,0,0-2.4-.48,20.47,20.47,0,0,0-3.22-.19,23.07,23.07,0,0,0-19.29,9.37q-7.21,9.36-7.22,25.87l-1.77-16.8h2.14a36.87,36.87,0,0,1,4.59-13,25.7,25.7,0,0,1,9-9.15A25.14,25.14,0,0,1,686.18,384a20.67,20.67,0,0,1,2.48.11q1.07.09,2.4.33Z" transform="translate(-83.99 -76.44)"/><path class="cls-1" d="M725.49,464.44q-11.94,0-18.18-5.15t-6.25-15.36q0-9.69,5.77-14.7t17.69-7.58l37.17-8.15v5l-36.13,8.22q-8.8,1.92-13.25,5.77t-4.44,11.11q0,7.62,4.74,11.36t13.84,3.74a35.76,35.76,0,0,0,17-4,28.8,28.8,0,0,0,12-12.62q4.44-8.61,4.44-22.14l1.7,17.62h-2.36q-2.1,12.29-10.7,19.62T725.49,464.44Zm38-1a3.63,3.63,0,0,1-2.93-1.18,5,5,0,0,1-1-3.34V430.53l.6-1.92-.3-8.74-.3-3.7V410q0-7.35-2.92-11.73a16.56,16.56,0,0,0-8.25-6.41,35.91,35.91,0,0,0-12.66-2q-11.4,0-17.25,4.3t-8.15,13.1L704,405.8a31.78,31.78,0,0,1,5.63-12.25A22.75,22.75,0,0,1,720,386.22a53.27,53.27,0,0,1,32.24.19,20.36,20.36,0,0,1,10.33,8.25q3.54,5.67,3.55,14.92v48.19h12.21v5.63Z" transform="translate(-83.99 -76.44)"/><path class="cls-1" d="M790.63,463.4v-5.63H806.7v-67H790.63v-5.63H806.7V371q0-12.51,6.51-19.17T832,345.17q10.37,0,16.29,4.74t7.85,13.77l-5.93,1.85c-1.08-4.83-3.13-8.43-6.14-10.77s-7.06-3.52-12.14-3.52q-8.67,0-13.66,4.78t-5,15v14.14H841v5.63H813.21v67h20v5.63Z" transform="translate(-83.99 -76.44)"/><path class="cls-1" d="M873.84,443q0,7.56,3,11.55t9.51,4q6.3,0,9.41-4T898.87,443v-6.88H905V443a30,30,0,0,1-2.08,11.73,15.4,15.4,0,0,1-6.22,7.37,19.66,19.66,0,0,1-10.36,2.52q-6.6,0-10.73-2.56a15.39,15.39,0,0,1-6.19-7.4,29.8,29.8,0,0,1-2-11.66l.15-52.26h-15v-5.63h15v-20H874v20H904.2v5.63H874Z" transform="translate(-83.99 -76.44)"/><path class="cls-1" d="M959,464.66a40.2,40.2,0,0,1-20.66-5.15,35.6,35.6,0,0,1-13.66-14.17,43.33,43.33,0,0,1-4.85-20.88,44.4,44.4,0,0,1,4.85-21.1A36,36,0,0,1,938.22,389a38.6,38.6,0,0,1,20.32-5.22q11.55,0,20,5.11A34.93,34.93,0,0,1,991.68,403a44.49,44.49,0,0,1,4.66,20.77v2.52h-6.52c0-.47.07-.94.08-1.41V423.2a38.34,38.34,0,0,0-3.82-17.4A28.74,28.74,0,0,0,975.24,394a34.22,34.22,0,0,0-33.46.15,30.49,30.49,0,0,0-11.33,12.29,38.45,38.45,0,0,0-4.07,18.06,37.57,37.57,0,0,0,4.07,17.8,29.94,29.94,0,0,0,11.36,12.07,35.94,35.94,0,0,0,35.32-.63,30.53,30.53,0,0,0,11.66-13.62l6.22,2.37a36.44,36.44,0,0,1-14,16.25A40.42,40.42,0,0,1,959,464.66Zm-35.1-38.42V421h70.33l1.85,5.26Z" transform="translate(-83.99 -76.44)"/><path class="cls-1" d="M1051,383.82a36.4,36.4,0,0,1,18.55,4.66,36,36,0,0,1,13.1,13.07,45.52,45.52,0,0,1,6,19.65l-4.29,3a37.78,37.78,0,0,0-4.07-17.8,30.49,30.49,0,0,0-11.44-12.18,35.25,35.25,0,0,0-34.28,0,30.59,30.59,0,0,0-11.47,12.22,40.62,40.62,0,0,0,.07,35.75,31.58,31.58,0,0,0,11.55,12.26,34.73,34.73,0,0,0,34.09,0,31.25,31.25,0,0,0,11.44-12.29,38.16,38.16,0,0,0,4.11-18l1,14.81h-1.55a31.66,31.66,0,0,1-5.37,12,33.2,33.2,0,0,1-11.22,9.85q-7,3.89-16.88,3.88a38.84,38.84,0,0,1-15.28-3,34.8,34.8,0,0,1-12.07-8.4,38.71,38.71,0,0,1-7.88-12.88,45.29,45.29,0,0,1-2.82-16.25,43.32,43.32,0,0,1,4.89-20.88A36.34,36.34,0,0,1,1030.71,389,38.67,38.67,0,0,1,1051,383.82Zm33,79.58V432.82l.3-4.29v-8.44l-.3-7.4V352h-22.87v-5.6h29.39V457.77h16.06v5.63Z" transform="translate(-83.99 -76.44)"/><path class="cls-1" d="M912.44,345.86C877.29,190.9,741.61,82.67,582.51,82.67S287.7,190.9,252.51,345.86l-6-1.36C288.82,159,473.54,42.83,659.09,85.14A344.63,344.63,0,0,1,918.44,344.5Z" transform="translate(-83.99 -76.44)"/><path class="cls-1" d="M918.73,496.23c-34.62,155.51-174,269.22-336.22,269.22S280.88,651.74,246.26,496.23h6.32c34.52,152,171.06,263,329.93,263s295.38-111,329.9-263Z" transform="translate(-83.99 -76.44)"/></svg>