<svg id="Layer_1" data-name="Layer 1" xmlns="http://www.w3.org/2000/svg" viewBox="0 0 1022.65 688.95"><defs><style>.cls-1{fill:#877170;}</style></defs><path class="cls-1" d="M107.64,457.74h15.69v5.63H84v-5.63h17.17V352H84V346.4h23.69Zm52.19,0v-45q0-11-4.89-17.17t-15.69-6.22a29.81,29.81,0,0,0-27.36,16.8q-4.24,8.22-4.25,20.14L106,410.51h2a36.82,36.82,0,0,1,6-14.25,29.44,29.44,0,0,1,11.11-9.36,35.25,35.25,0,0,1,15.8-3.33q13.4,0,19.4,7.43t6,20.77v46h16.28v5.63H144.21v-5.63Z" transform="translate(-83.95 -76.47)"/><path class="cls-1" d="M234.6,464.63a42.31,42.31,0,0,1-21.17-5.15,36.88,36.88,0,0,1-14.22-14.17,41.73,41.73,0,0,1-5.1-20.88,42.71,42.71,0,0,1,5.1-21.1,37.23,37.23,0,0,1,14.18-14.4,45.48,45.48,0,0,1,42.31,0,37,37,0,0,1,14.21,14.4,42.61,42.61,0,0,1,5.11,21.1,41.63,41.63,0,0,1-5.11,20.88,36.89,36.89,0,0,1-14.17,14.17A42.14,42.14,0,0,1,234.6,464.63Zm0-6a35.11,35.11,0,0,0,17.58-4.29,30.05,30.05,0,0,0,11.81-12,36.8,36.8,0,0,0,4.22-17.88A37.18,37.18,0,0,0,264,406.48a30.93,30.93,0,0,0-11.81-12.25,37.09,37.09,0,0,0-35.23,0,30.93,30.93,0,0,0-11.81,12.25,37.07,37.07,0,0,0-4.22,17.95,36.68,36.68,0,0,0,4.22,17.88,30.05,30.05,0,0,0,11.81,12A35.22,35.22,0,0,0,234.6,458.63Z" transform="translate(-83.95 -76.47)"/><path class="cls-1" d="M290.57,463.37v-5.63h17.1v-67h-17.1v-5.63h23.61v72.62h15.7v5.63Zm56.56,0v-5.63h15.62V413q0-11.18-4.78-17.39t-15.21-6.22A26.11,26.11,0,0,0,328,393.63,28.67,28.67,0,0,0,317.85,406q-3.68,8.07-3.67,19.39l-1.77-15.84h2.14q1.93-13.11,10.18-19.54a31.07,31.07,0,0,1,19.73-6.44q12.81,0,18.81,7.4t6,20.87v45.9h16.36v5.63Zm55.07,0v-5.63h15.63V413q0-11.18-4.82-17.39t-15.17-6.22A26.11,26.11,0,0,0,383,393.63,28.67,28.67,0,0,0,372.93,406q-3.68,8.07-3.67,19.39l-1.78-15.84h2.15q1.92-13.11,10.18-19.54a31.07,31.07,0,0,1,19.73-6.44q12.66,0,18.73,7.4t6.07,20.87v45.9h16.21v5.63Z" transform="translate(-83.95 -76.47)"/><path class="cls-1" d="M491.56,464.63a40.19,40.19,0,0,1-20.65-5.15,35.54,35.54,0,0,1-13.66-14.17,43.49,43.49,0,0,1-4.85-20.88,44.52,44.52,0,0,1,4.85-21.1,36.09,36.09,0,0,1,13.55-14.4,38.7,38.7,0,0,1,20.32-5.22q11.55,0,20,5.11a34.91,34.91,0,0,1,13.14,14.1A44.49,44.49,0,0,1,529,423.69c0,.54,0,1,0,1.44s0,.78,0,1.08h-6.51a12.8,12.8,0,0,0,.07-1.41v-1.63a38.15,38.15,0,0,0-3.81-17.4,28.75,28.75,0,0,0-10.85-11.84,34.25,34.25,0,0,0-33.46.15A30.55,30.55,0,0,0,463,406.37a38.58,38.58,0,0,0-4.08,18.06,37.57,37.57,0,0,0,4.08,17.8,29.92,29.92,0,0,0,11.36,12.07,35.92,35.92,0,0,0,35.31-.63,30.34,30.34,0,0,0,11.66-13.62l6.22,2.37a36.27,36.27,0,0,1-14,16.25A40.26,40.26,0,0,1,491.56,464.63Zm-35.09-38.42V421H526.8l1.85,5.26Z" transform="translate(-83.95 -76.47)"/><path class="cls-1" d="M584.39,464.63a40.67,40.67,0,0,1-20.73-5.15,36,36,0,0,1-13.8-14.17,43,43,0,0,1-4.92-20.88,47.3,47.3,0,0,1,2.73-16.4,37.9,37.9,0,0,1,7.81-12.88,35.08,35.08,0,0,1,12.15-8.44,39.45,39.45,0,0,1,15.58-3,34.79,34.79,0,0,1,15.14,3,26,26,0,0,1,10,8.14,28.05,28.05,0,0,1,4.89,11.4H615l-1.4,10a32.44,32.44,0,0,0-5-14A27.84,27.84,0,0,0,598.28,393a30.79,30.79,0,0,0-14.55-3.33,31.56,31.56,0,0,0-16.81,4.44,30.19,30.19,0,0,0-11.25,12.29,39.18,39.18,0,0,0-4,18.06,37.68,37.68,0,0,0,4.07,17.8,29.85,29.85,0,0,0,11.44,12.07,33.45,33.45,0,0,0,17.29,4.33,33.07,33.07,0,0,0,18.1-4.85,30.88,30.88,0,0,0,11.58-13.06l5.93,2.66a36.61,36.61,0,0,1-13.74,15.51Q597.28,464.64,584.39,464.63Zm29.25-48.34V385.12h6.51v31.17Z" transform="translate(-83.95 -76.47)"/><path class="cls-1" d="M658.94,457.74h16.51v5.63H635v-5.63h17.4v-67H635v-5.63h23.91Zm32.13-66a19.58,19.58,0,0,0-2.4-.48,22.36,22.36,0,0,0-3.22-.19,23.1,23.1,0,0,0-19.29,9.37q-7.21,9.36-7.22,25.87l-1.77-16.8h2.14a37.18,37.18,0,0,1,4.59-13,25.79,25.79,0,0,1,9-9.15,25.28,25.28,0,0,1,13.29-3.36,23,23,0,0,1,2.48.11q1.07.1,2.4.33Z" transform="translate(-83.95 -76.47)"/><path class="cls-1" d="M725.5,464.41q-11.93,0-18.18-5.15t-6.25-15.36q0-9.69,5.77-14.7t17.69-7.58l37.17-8.15v5l-36.13,8.22q-8.8,1.92-13.25,5.77t-4.44,11.11q0,7.62,4.74,11.36t13.84,3.74a35.61,35.61,0,0,0,17-4,28.71,28.71,0,0,0,12-12.62q4.44-8.6,4.44-22.14l1.7,17.62h-2.36q-2.09,12.29-10.7,19.62T725.5,464.41Zm38-1a3.63,3.63,0,0,1-2.93-1.18,5.06,5.06,0,0,1-1-3.34V430.5l.6-1.92-.3-8.74-.3-3.7v-6.22q0-7.34-2.92-11.73a16.57,16.57,0,0,0-8.25-6.41,36.17,36.17,0,0,0-12.66-2q-11.4,0-17.25,4.3t-8.15,13.1l-6.29-1.41a31.81,31.81,0,0,1,5.63-12.25A22.88,22.88,0,0,1,720,386.19a53.34,53.34,0,0,1,32.24.19,20.38,20.38,0,0,1,10.33,8.25q3.55,5.67,3.55,14.92v48.19h12.21v5.63Z" transform="translate(-83.95 -76.47)"/><path class="cls-1" d="M790.64,463.37v-5.63h16.07v-67H790.64v-5.63h16.07V371q0-12.51,6.51-19.17T832,345.14q10.37,0,16.29,4.74t7.85,13.77l-5.93,1.85c-1.08-4.83-3.13-8.43-6.14-10.77s-7.06-3.52-12.14-3.52q-8.67,0-13.66,4.78t-5,15v14.14h27.69v5.63H813.22v67h20v5.63Z" transform="translate(-83.95 -76.47)"/><path class="cls-1" d="M873.85,443q0,7.56,3,11.55t9.51,4q6.3,0,9.41-4T898.88,443v-6.88H905V443a29.8,29.8,0,0,1-2.08,11.73,15.37,15.37,0,0,1-6.22,7.37,19.61,19.61,0,0,1-10.36,2.52q-6.59,0-10.73-2.56a15.42,15.42,0,0,1-6.19-7.4,30,30,0,0,1-2-11.66l.15-52.26h-15v-5.63h15v-20H874v20h30.21v5.63H874Z" transform="translate(-83.95 -76.47)"/><path class="cls-1" d="M959,464.63a40.22,40.22,0,0,1-20.66-5.15,35.61,35.61,0,0,1-13.66-14.17,43.49,43.49,0,0,1-4.85-20.88,44.52,44.52,0,0,1,4.85-21.1,36.09,36.09,0,0,1,13.55-14.4,38.73,38.73,0,0,1,20.32-5.22q11.55,0,20,5.11a34.91,34.91,0,0,1,13.14,14.1,44.49,44.49,0,0,1,4.66,20.77c0,.54,0,1,0,1.44s0,.78,0,1.08h-6.52a12.74,12.74,0,0,0,.08-1.41v-1.63a38.16,38.16,0,0,0-3.82-17.4,28.72,28.72,0,0,0-10.84-11.84,34.25,34.25,0,0,0-33.46.15,30.58,30.58,0,0,0-11.33,12.29,38.58,38.58,0,0,0-4.07,18.06,37.57,37.57,0,0,0,4.07,17.8,29.92,29.92,0,0,0,11.36,12.07,35.94,35.94,0,0,0,35.32-.63,30.4,30.4,0,0,0,11.66-13.62l6.22,2.37a36.27,36.27,0,0,1-14,16.25A40.3,40.3,0,0,1,959,464.63Zm-35.1-38.42V421h70.33l1.85,5.26Z" transform="translate(-83.95 -76.47)"/><path class="cls-1" d="M1051,383.79a36.51,36.51,0,0,1,18.55,4.66,36,36,0,0,1,13.1,13.07,45.49,45.49,0,0,1,6,19.65l-4.29,3a37.71,37.71,0,0,0-4.07-17.8,30.58,30.58,0,0,0-11.44-12.18,35.3,35.3,0,0,0-34.28,0,30.7,30.7,0,0,0-11.47,12.22,37.59,37.59,0,0,0-4.11,17.84,37.18,37.18,0,0,0,4.18,17.91,31.56,31.56,0,0,0,11.55,12.26,34.73,34.73,0,0,0,34.09,0,31.09,31.09,0,0,0,11.44-12.29,38,38,0,0,0,4.11-18l1,14.81h-1.55a31.42,31.42,0,0,1-5.37,12,33,33,0,0,1-11.22,9.85q-7,3.89-16.88,3.88a38.87,38.87,0,0,1-15.28-3,34.73,34.73,0,0,1-12.07-8.4,38.7,38.7,0,0,1-7.88-12.88,45.5,45.5,0,0,1-2.82-16.25,43.44,43.44,0,0,1,4.89-20.88A36.45,36.45,0,0,1,1030.72,389,38.78,38.78,0,0,1,1051,383.79Zm33,79.58V432.79l.3-4.29v-8.44l-.3-7.4V352h-22.87V346.4h29.39V457.74h16.06v5.63Z" transform="translate(-83.95 -76.47)"/><path class="cls-1" d="M912.45,345.83C877.3,190.87,741.62,82.64,582.52,82.64s-294.81,108.23-330,263.19l-6-1.36a344.59,344.59,0,0,1,671.93,0Z" transform="translate(-83.95 -76.47)"/><path class="cls-1" d="M918.74,496.2c-34.62,155.51-174,269.22-336.22,269.22S280.89,651.71,246.27,496.2h6.32c34.52,152,171.06,263.05,329.93,263.05s295.38-111,329.9-263Z" transform="translate(-83.95 -76.47)"/></svg>